<?xml version="1.0" encoding="UTF-8" standalone="no"?>
<!DOCTYPE svg PUBLIC "-//W3C//DTD SVG 1.1//EN" "http://www.w3.org/Graphics/SVG/1.1/DTD/svg11.dtd">
<svg width="100%" height="100%" viewBox="0 0 3000 600" version="1.1" xmlns="http://www.w3.org/2000/svg" xmlns:xlink="http://www.w3.org/1999/xlink" xml:space="preserve" style="fill-rule:evenodd;clip-rule:evenodd;stroke-linecap:round;stroke-linejoin:round;stroke-miterlimit:1.41421;">
    <g id="Ebene1" transform="matrix(1,0,0,1,900,0)">
        <g transform="matrix(0.943064,0,0,0.943064,-848.674,-13.2378)">
            <g transform="matrix(0.506458,-8.05348e-18,-8.05348e-18,0.539339,188.35,206.611)">
                <ellipse cx="228.445" cy="233.439" rx="78.98" ry="74.165" style="fill:rgb(153,101,180);stroke:rgb(129,67,162);stroke-width:12.16px;"/>
            </g>
            <g transform="matrix(0.00246199,0.716584,-1.12456,0.00386369,586.935,-175.13)">
                <ellipse cx="593.274" cy="252.852" rx="285.383" ry="93.448" style="fill:none;stroke:rgb(102,102,102);stroke-width:13.49px;"/>
            </g>
            <g transform="matrix(0.28118,-4.4712e-18,-4.4712e-18,0.299435,239.814,-23.4229)">
                <ellipse cx="228.445" cy="233.439" rx="78.98" ry="74.165" style="fill:rgb(98,172,73);stroke:rgb(59,151,18);stroke-width:21.9px;"/>
            </g>
            <g transform="matrix(-1.05513,5.9779e-16,-6.31365e-16,-1.1144,571.183,425.134)">
                <path d="M-38.264,-192.835C24.83,-46.057 123.552,217.797 251.564,218.016C389.895,218.253 488.171,-53.975 544.616,-191.654" style="fill:none;stroke:rgb(102,102,102);stroke-width:11.73px;"/>
            </g>
            <g transform="matrix(0.28118,-4.4712e-18,-4.4712e-18,0.299435,5.39291,385.579)">
                <ellipse cx="228.445" cy="233.439" rx="78.98" ry="74.165" style="fill:rgb(204,77,76);stroke:rgb(188,37,39);stroke-width:21.9px;"/>
            </g>
        </g>
        <g transform="matrix(1.49276,0,0,1.49276,118.724,-274.991)">
            <g transform="matrix(1,0,0,1,-797.795,137.137)">
                <path d="M647.026,179.631L712.698,322.787L677.541,322.787L659.963,284.537L605.541,284.537L587.119,322.787L563.776,322.787L632.119,179.631L647.026,179.631ZM612.01,271.459L654.198,271.459L633.385,226.178L612.01,271.459Z" style="fill-rule:nonzero;"/>
                <path d="M729.651,293.256C731.526,298.975 734.198,303.451 737.667,306.686C741.136,309.92 745.495,311.537 750.745,311.537C755.245,311.537 758.878,310.483 761.643,308.373C764.409,306.264 765.792,303.709 765.792,300.709C765.792,298.178 765.323,295.928 764.386,293.959C763.448,291.99 762.136,290.209 760.448,288.615C758.761,287.022 756.792,285.569 754.542,284.256C752.292,282.944 749.854,281.678 747.229,280.459C743.011,278.584 738.839,276.569 734.714,274.412C730.589,272.256 726.886,269.795 723.604,267.03C720.323,264.264 717.651,261.076 715.589,257.467C713.526,253.858 712.495,249.709 712.495,245.022C712.495,240.522 713.433,236.444 715.308,232.787C717.183,229.131 719.808,225.99 723.183,223.365C726.558,220.74 730.589,218.701 735.276,217.248C739.964,215.795 745.12,215.069 750.745,215.069C755.901,215.069 760.472,215.537 764.456,216.475C768.44,217.412 771.979,218.795 775.073,220.623C778.167,222.451 780.862,224.655 783.159,227.233C785.456,229.811 787.542,232.694 789.417,235.881L770.854,242.35C769.823,238.975 768.628,236.35 767.268,234.475C765.909,232.6 764.479,231.194 762.979,230.256C761.479,229.319 760.003,228.756 758.55,228.569C757.097,228.381 755.808,228.287 754.683,228.287C750.745,228.287 747.276,229.131 744.276,230.819C741.276,232.506 739.776,234.944 739.776,238.131C739.776,242.162 741.745,245.725 745.683,248.819C749.62,251.912 754.542,254.678 760.448,257.115C764.948,258.99 769.308,261.053 773.526,263.303C777.745,265.553 781.518,268.108 784.847,270.967C788.175,273.826 790.823,276.99 792.792,280.459C794.761,283.928 795.745,287.819 795.745,292.131C795.745,296.725 794.972,301.037 793.425,305.069C791.878,309.1 789.417,312.592 786.042,315.545C782.667,318.498 778.284,320.842 772.893,322.576C767.503,324.311 760.917,325.178 753.136,325.178C746.573,325.178 740.995,324.428 736.401,322.928C731.808,321.428 727.917,319.483 724.729,317.092C721.542,314.701 718.917,312.03 716.854,309.076C714.792,306.123 712.964,303.194 711.37,300.287L729.651,293.256Z" style="fill-rule:nonzero;"/>
                <path d="M799.339,230.115L799.339,219.428C803.183,219.428 806.793,218.49 810.168,216.615C813.543,214.74 816.589,212.162 819.308,208.881C822.027,205.6 824.371,201.803 826.339,197.49C828.308,193.178 829.761,188.537 830.699,183.569L848.418,183.569L848.418,217.178L874.433,217.178L874.433,230.115L848.418,230.115L848.418,298.319C848.418,300.475 848.957,302.326 850.035,303.873C851.113,305.42 852.589,306.194 854.464,306.194C855.589,306.194 856.808,305.819 858.121,305.069C859.433,304.319 860.699,303.451 861.918,302.467C863.136,301.483 864.214,300.475 865.152,299.444C866.089,298.412 866.746,297.615 867.121,297.053L878.089,305.772C876.308,308.49 874.363,311.045 872.253,313.436C870.144,315.826 867.707,317.889 864.941,319.623C862.175,321.358 858.988,322.717 855.378,323.701C851.769,324.686 847.621,325.178 842.933,325.178C838.527,325.178 834.66,324.545 831.332,323.28C828.003,322.014 825.238,320.233 823.035,317.936C820.832,315.639 819.168,312.897 818.043,309.709C816.918,306.522 816.355,303.006 816.355,299.162L816.355,230.115L799.339,230.115Z" style="fill-rule:nonzero;"/>
                <path d="M915.153,322.787L883.09,322.787L883.09,217.178L915.153,217.178L915.153,225.053C918.715,221.49 922.629,218.584 926.895,216.334C931.16,214.084 935.684,212.959 940.465,212.959C943.371,212.959 946.09,213.334 948.621,214.084C951.153,214.834 953.356,215.865 955.231,217.178C957.106,218.49 958.582,219.99 959.66,221.678C960.738,223.365 961.278,225.194 961.278,227.162C961.278,231.006 959.918,234.1 957.199,236.444C954.481,238.787 951.199,239.959 947.356,239.959C944.824,239.959 942.738,239.561 941.098,238.764C939.457,237.967 937.957,237.076 936.598,236.092C935.238,235.108 933.879,234.217 932.52,233.42C931.16,232.623 929.449,232.225 927.387,232.225C926.356,232.225 925.278,232.623 924.153,233.42C923.028,234.217 921.949,235.295 920.918,236.655C919.887,238.014 918.879,239.584 917.895,241.365C916.91,243.147 915.996,244.975 915.153,246.85L915.153,322.787Z" style="fill-rule:nonzero;"/>
                <path d="M1016.06,324.756C1007.62,324.756 999.817,323.373 992.645,320.608C985.473,317.842 979.286,314.045 974.083,309.217C968.88,304.389 964.825,298.717 961.919,292.201C959.013,285.686 957.559,278.631 957.559,271.037C957.559,262.881 959.013,255.381 961.919,248.537C964.825,241.694 968.88,235.787 974.083,230.819C979.286,225.85 985.45,221.983 992.575,219.217C999.7,216.451 1007.48,215.069 1015.92,215.069C1024.36,215.069 1032.14,216.428 1039.26,219.147C1046.39,221.865 1052.58,225.615 1057.83,230.397C1063.08,235.178 1067.18,240.78 1070.13,247.201C1073.08,253.623 1074.56,260.537 1074.56,267.944C1074.56,275.725 1073.08,283.061 1070.13,289.951C1067.18,296.842 1063.1,302.865 1057.89,308.022C1052.69,313.178 1046.53,317.256 1039.4,320.256C1032.28,323.256 1024.5,324.756 1016.06,324.756ZM1019.72,311.819C1022.62,311.819 1025.32,310.858 1027.8,308.936C1030.29,307.014 1032.42,304.459 1034.2,301.272C1035.98,298.084 1037.39,294.405 1038.42,290.233C1039.45,286.061 1039.97,281.678 1039.97,277.084C1039.97,270.334 1039.45,263.959 1038.42,257.959C1037.39,251.959 1035.75,246.733 1033.5,242.28C1031.25,237.826 1028.32,234.287 1024.71,231.662C1021.1,229.037 1016.67,227.725 1011.42,227.725C1008.89,227.725 1006.45,228.662 1004.11,230.537C1001.76,232.412 999.7,234.92 997.919,238.061C996.138,241.201 994.708,244.834 993.63,248.959C992.552,253.084 992.013,257.397 992.013,261.897C992.013,268.74 992.645,275.186 993.911,281.233C995.177,287.28 997.005,292.576 999.395,297.123C1001.79,301.67 1004.69,305.256 1008.11,307.881C1011.54,310.506 1015.4,311.819 1019.72,311.819Z" style="fill-rule:nonzero;"/>
                <path d="M1155.08,316.6C1151.14,319.319 1146.87,321.428 1142.28,322.928C1137.68,324.428 1133.14,325.178 1128.64,325.178C1121.98,325.178 1115.75,323.701 1109.93,320.748C1104.12,317.795 1099.04,313.811 1094.68,308.795C1090.32,303.78 1086.9,298.014 1084.41,291.498C1081.93,284.983 1080.68,278.162 1080.68,271.037C1080.68,264.006 1082.21,257.115 1085.26,250.365C1088.3,243.615 1092.45,237.639 1097.7,232.436C1102.95,227.233 1109.12,223.037 1116.19,219.85C1123.27,216.662 1130.84,215.069 1138.9,215.069C1145.09,215.069 1150.48,215.959 1155.08,217.74L1155.08,174.709L1187,165.85L1187,322.787L1155.08,322.787L1155.08,316.6ZM1155.08,250.787C1155.08,247.412 1154.54,244.319 1153.46,241.506C1152.38,238.694 1150.95,236.28 1149.17,234.264C1147.39,232.248 1145.42,230.678 1143.26,229.553C1141.11,228.428 1138.9,227.865 1136.65,227.865C1133.75,227.865 1130.98,228.803 1128.36,230.678C1125.73,232.553 1123.43,235.155 1121.47,238.483C1119.5,241.811 1117.93,245.772 1116.76,250.365C1115.58,254.959 1115,259.975 1115,265.412C1115,271.225 1115.65,276.803 1116.97,282.147C1118.28,287.49 1120.08,292.178 1122.38,296.209C1124.68,300.24 1127.35,303.451 1130.4,305.842C1133.44,308.233 1136.7,309.428 1140.17,309.428C1142.61,309.428 1145.23,308.701 1148.04,307.248C1150.86,305.795 1153.2,303.944 1155.08,301.694L1155.08,250.787Z" style="fill-rule:nonzero;"/>
                <path d="M1190.59,215.209L1224.48,215.209L1257.95,280.319L1287.48,215.209L1310.12,215.209L1256.97,332.772C1255.09,336.897 1252.68,340.647 1249.73,344.022C1246.77,347.397 1243.54,350.28 1240.02,352.67C1236.51,355.061 1232.8,356.912 1228.91,358.225C1225.02,359.537 1221.25,360.194 1217.59,360.194C1214.78,360.194 1212.13,359.842 1209.65,359.139C1207.16,358.436 1204.98,357.475 1203.11,356.256C1201.23,355.037 1199.73,353.584 1198.61,351.897C1197.48,350.209 1196.92,348.381 1196.92,346.412C1196.92,345.1 1197.15,343.74 1197.62,342.334C1198.09,340.928 1198.89,339.662 1200.01,338.537C1201.14,337.412 1202.66,336.498 1204.58,335.795C1206.51,335.092 1208.87,334.74 1211.69,334.74C1213.65,334.74 1215.23,335.069 1216.4,335.725C1217.57,336.381 1218.62,337.084 1219.56,337.834C1220.5,338.584 1221.46,339.287 1222.44,339.944C1223.43,340.6 1224.72,340.928 1226.31,340.928C1227.34,340.928 1228.42,340.342 1229.55,339.17C1230.67,337.998 1231.77,336.522 1232.85,334.74C1233.93,332.959 1234.94,331.061 1235.87,329.045C1236.81,327.03 1237.65,325.225 1238.4,323.631L1242.2,315.194L1190.59,215.209Z" style="fill-rule:nonzero;"/>
                <path d="M1378.97,250.506C1378.97,245.069 1377.89,240.92 1375.73,238.061C1373.58,235.201 1371.09,233.772 1368.28,233.772C1366.87,233.772 1365.28,234.053 1363.5,234.615C1361.72,235.178 1359.84,235.951 1357.87,236.936C1355.9,237.92 1353.89,239.139 1351.83,240.592C1349.76,242.045 1347.8,243.662 1345.92,245.444L1345.92,322.787L1313.72,322.787L1313.72,217.178L1345.92,217.178L1345.92,225.475C1350.89,221.912 1356.19,219.287 1361.81,217.6C1367.44,215.912 1373.06,215.069 1378.69,215.069C1383,215.069 1387.12,215.912 1391.06,217.6C1395,219.287 1398.42,221.561 1401.33,224.42C1404.23,227.28 1406.55,230.655 1408.29,234.545C1410.02,238.436 1410.89,242.631 1410.89,247.131L1410.89,322.787L1378.97,322.787L1378.97,250.506Z" style="fill-rule:nonzero;"/>
                <path d="M1479.31,268.225C1476.22,269.537 1473.1,271.061 1469.96,272.795C1466.82,274.53 1463.96,276.428 1461.38,278.49C1458.8,280.553 1456.72,282.756 1455.12,285.1C1453.53,287.444 1452.73,289.881 1452.73,292.412C1452.73,294.381 1452.99,296.28 1453.51,298.108C1454.02,299.936 1454.75,301.506 1455.69,302.819C1456.62,304.131 1457.66,305.186 1458.78,305.983C1459.91,306.78 1461.12,307.178 1462.44,307.178C1465.06,307.178 1467.71,306.381 1470.38,304.787C1473.05,303.194 1476.03,301.178 1479.31,298.74L1479.31,268.225ZM1511.52,322.787L1479.31,322.787L1479.31,314.35C1477.53,315.85 1475.8,317.233 1474.11,318.498C1472.42,319.764 1470.52,320.865 1468.41,321.803C1466.3,322.74 1463.94,323.467 1461.31,323.983C1458.69,324.498 1455.59,324.756 1452.03,324.756C1447.16,324.756 1442.77,324.053 1438.88,322.647C1434.99,321.24 1431.69,319.319 1428.97,316.881C1426.25,314.444 1424.16,311.561 1422.71,308.233C1421.26,304.905 1420.53,301.272 1420.53,297.334C1420.53,293.303 1421.3,289.647 1422.85,286.365C1424.4,283.084 1426.51,280.131 1429.18,277.506C1431.85,274.881 1434.97,272.537 1438.53,270.475C1442.09,268.412 1445.91,266.514 1449.99,264.78C1454.07,263.045 1458.31,261.451 1462.72,259.998C1467.12,258.545 1471.48,257.162 1475.8,255.85L1479.31,255.006L1479.31,244.6C1479.31,237.85 1478.02,233.069 1475.44,230.256C1472.87,227.444 1469.42,226.037 1465.11,226.037C1460.05,226.037 1456.53,227.256 1454.56,229.694C1452.59,232.131 1451.61,235.084 1451.61,238.553C1451.61,240.522 1451.4,242.444 1450.98,244.319C1450.55,246.194 1449.83,247.834 1448.8,249.24C1447.77,250.647 1446.29,251.772 1444.37,252.615C1442.44,253.459 1440.03,253.881 1437.12,253.881C1432.62,253.881 1428.97,252.592 1426.16,250.014C1423.34,247.436 1421.94,244.178 1421.94,240.24C1421.94,236.584 1423.18,233.186 1425.66,230.045C1428.15,226.905 1431.5,224.209 1435.72,221.959C1439.94,219.709 1444.81,217.928 1450.34,216.615C1455.87,215.303 1461.73,214.647 1467.92,214.647C1475.52,214.647 1482.05,215.326 1487.54,216.686C1493.02,218.045 1497.55,219.99 1501.11,222.522C1504.67,225.053 1507.3,228.1 1508.98,231.662C1510.67,235.225 1511.52,239.209 1511.52,243.615L1511.52,322.787Z" style="fill-rule:nonzero;"/>
                <path d="M1661.22,251.069C1661.22,248.725 1660.94,246.498 1660.38,244.389C1659.81,242.28 1659.02,240.451 1657.98,238.905C1656.95,237.358 1655.73,236.115 1654.33,235.178C1652.92,234.24 1651.42,233.772 1649.83,233.772C1647.95,233.772 1646.03,234.076 1644.06,234.686C1642.09,235.295 1640.12,236.115 1638.16,237.147C1636.19,238.178 1634.34,239.397 1632.6,240.803C1630.87,242.209 1629.34,243.662 1628.03,245.162L1628.03,322.787L1596.25,322.787L1596.25,251.069C1596.25,248.725 1595.92,246.498 1595.27,244.389C1594.61,242.28 1593.77,240.451 1592.73,238.905C1591.7,237.358 1590.51,236.115 1589.15,235.178C1587.79,234.24 1586.36,233.772 1584.86,233.772C1583.17,233.772 1581.34,234.076 1579.38,234.686C1577.41,235.295 1575.44,236.115 1573.47,237.147C1571.5,238.178 1569.6,239.397 1567.77,240.803C1565.94,242.209 1564.33,243.662 1562.92,245.162L1562.92,322.787L1530.86,322.787L1530.86,217.178L1562.92,217.178L1562.92,226.178C1567.98,222.803 1573.19,220.108 1578.53,218.092C1583.88,216.076 1589.08,215.069 1594.14,215.069C1596.86,215.069 1599.62,215.373 1602.44,215.983C1605.25,216.592 1607.94,217.459 1610.52,218.584C1613.1,219.709 1615.49,221.092 1617.69,222.733C1619.9,224.373 1621.8,226.225 1623.39,228.287C1625.73,226.319 1628.38,224.514 1631.34,222.873C1634.29,221.233 1637.36,219.85 1640.55,218.725C1643.73,217.6 1646.99,216.709 1650.32,216.053C1653.65,215.397 1656.95,215.069 1660.23,215.069C1664.73,215.069 1669,215.936 1673.03,217.67C1677.06,219.405 1680.6,221.772 1683.65,224.772C1686.69,227.772 1689.11,231.311 1690.89,235.389C1692.67,239.467 1693.56,243.85 1693.56,248.537L1693.56,322.787L1661.22,322.787L1661.22,251.069Z" style="fill-rule:nonzero;"/>
                <path d="M1711.78,222.944L1743.84,214.084L1743.84,322.787L1711.78,322.787L1711.78,222.944ZM1710.38,183.428C1710.38,181.272 1710.82,179.233 1711.71,177.311C1712.6,175.389 1713.84,173.725 1715.44,172.319C1717.03,170.912 1718.86,169.811 1720.92,169.014C1722.99,168.217 1725.24,167.819 1727.67,167.819C1730.02,167.819 1732.24,168.217 1734.35,169.014C1736.46,169.811 1738.31,170.912 1739.91,172.319C1741.5,173.725 1742.74,175.389 1743.63,177.311C1744.52,179.233 1744.97,181.272 1744.97,183.428C1744.97,185.584 1744.52,187.6 1743.63,189.475C1742.74,191.35 1741.5,192.99 1739.91,194.397C1738.31,195.803 1736.46,196.905 1734.35,197.701C1732.24,198.498 1730.02,198.897 1727.67,198.897C1725.24,198.897 1722.99,198.498 1720.92,197.701C1718.86,196.905 1717.03,195.803 1715.44,194.397C1713.84,192.99 1712.6,191.35 1711.71,189.475C1710.82,187.6 1710.38,185.584 1710.38,183.428Z" style="fill-rule:nonzero;"/>
                <path d="M1811.56,227.865C1808.19,227.865 1805.12,228.733 1802.35,230.467C1799.59,232.201 1797.22,234.522 1795.25,237.428C1793.28,240.334 1791.76,243.709 1790.68,247.553C1789.6,251.397 1789.06,255.428 1789.06,259.647C1789.06,265.553 1789.72,271.201 1791.03,276.592C1792.35,281.983 1794.24,286.717 1796.73,290.795C1799.21,294.873 1802.16,298.131 1805.59,300.569C1809.01,303.006 1812.83,304.225 1817.05,304.225C1820.61,304.225 1823.82,303.522 1826.68,302.115C1829.54,300.709 1832.14,298.764 1834.49,296.28C1836.83,293.795 1838.94,290.912 1840.81,287.631C1842.69,284.35 1844.42,280.881 1846.02,277.225L1861.35,281.303C1857.78,295.178 1851.57,305.889 1842.71,313.436C1833.85,320.983 1822.86,324.756 1809.74,324.756C1802.42,324.756 1795.58,323.373 1789.2,320.608C1782.83,317.842 1777.25,314.069 1772.47,309.287C1767.69,304.506 1763.91,298.928 1761.15,292.553C1758.38,286.178 1757,279.381 1757,272.162C1757,264.381 1758.48,257.022 1761.43,250.084C1764.38,243.147 1768.41,237.076 1773.53,231.873C1778.63,226.67 1784.59,222.569 1791.38,219.569C1798.18,216.569 1805.42,215.069 1813.11,215.069C1819.58,215.069 1825.44,215.725 1830.69,217.037C1835.94,218.35 1840.41,220.178 1844.12,222.522C1847.82,224.865 1850.68,227.631 1852.7,230.819C1854.71,234.006 1855.72,237.475 1855.72,241.225C1855.72,243.006 1855.2,244.694 1854.17,246.287C1853.14,247.881 1851.76,249.287 1850.03,250.506C1848.29,251.725 1846.32,252.686 1844.12,253.389C1841.91,254.092 1839.69,254.444 1837.44,254.444C1834.91,254.444 1832.68,254.092 1830.76,253.389C1828.84,252.686 1827.22,251.725 1825.91,250.506C1824.6,249.287 1823.61,247.951 1822.95,246.498C1822.3,245.045 1821.97,243.522 1821.97,241.928C1821.97,240.334 1821.92,238.694 1821.83,237.006C1821.74,235.319 1821.36,233.795 1820.7,232.436C1820.05,231.076 1819.02,229.975 1817.61,229.131C1816.2,228.287 1814.19,227.865 1811.56,227.865Z" style="fill-rule:nonzero;"/>
                <path d="M1885.61,293.256C1887.49,298.975 1890.16,303.451 1893.63,306.686C1897.1,309.92 1901.45,311.537 1906.7,311.537C1911.2,311.537 1914.84,310.483 1917.6,308.373C1920.37,306.264 1921.75,303.709 1921.75,300.709C1921.75,298.178 1921.28,295.928 1920.35,293.959C1919.41,291.99 1918.1,290.209 1916.41,288.615C1914.72,287.022 1912.75,285.569 1910.5,284.256C1908.25,282.944 1905.81,281.678 1903.19,280.459C1898.97,278.584 1894.8,276.569 1890.67,274.412C1886.55,272.256 1882.85,269.795 1879.56,267.03C1876.28,264.264 1873.61,261.076 1871.55,257.467C1869.49,253.858 1868.45,249.709 1868.45,245.022C1868.45,240.522 1869.39,236.444 1871.27,232.787C1873.14,229.131 1875.77,225.99 1879.14,223.365C1882.52,220.74 1886.55,218.701 1891.24,217.248C1895.92,215.795 1901.08,215.069 1906.7,215.069C1911.86,215.069 1916.43,215.537 1920.42,216.475C1924.4,217.412 1927.94,218.795 1931.03,220.623C1934.13,222.451 1936.82,224.655 1939.12,227.233C1941.42,229.811 1943.5,232.694 1945.38,235.881L1926.81,242.35C1925.78,238.975 1924.59,236.35 1923.23,234.475C1921.87,232.6 1920.44,231.194 1918.94,230.256C1917.44,229.319 1915.96,228.756 1914.51,228.569C1913.06,228.381 1911.77,228.287 1910.64,228.287C1906.7,228.287 1903.24,229.131 1900.24,230.819C1897.24,232.506 1895.74,234.944 1895.74,238.131C1895.74,242.162 1897.7,245.725 1901.64,248.819C1905.58,251.912 1910.5,254.678 1916.41,257.115C1920.91,258.99 1925.27,261.053 1929.49,263.303C1933.7,265.553 1937.48,268.108 1940.81,270.967C1944.13,273.826 1946.78,276.99 1948.75,280.459C1950.72,283.928 1951.7,287.819 1951.7,292.131C1951.7,296.725 1950.93,301.037 1949.38,305.069C1947.84,309.1 1945.38,312.592 1942,315.545C1938.63,318.498 1934.24,320.842 1928.85,322.576C1923.46,324.311 1916.88,325.178 1909.1,325.178C1902.53,325.178 1896.95,324.428 1892.36,322.928C1887.77,321.428 1883.88,319.483 1880.69,317.092C1877.5,314.701 1874.88,312.03 1872.81,309.076C1870.75,306.123 1868.92,303.194 1867.33,300.287L1885.61,293.256Z" style="fill-rule:nonzero;"/>
                <path d="M1961.77,310.834C1961.77,308.865 1962.14,307.014 1962.89,305.28C1963.64,303.545 1964.65,302.022 1965.92,300.709C1967.18,299.397 1968.68,298.365 1970.42,297.615C1972.15,296.865 1974,296.49 1975.97,296.49C1977.94,296.49 1979.82,296.865 1981.6,297.615C1983.38,298.365 1984.9,299.397 1986.17,300.709C1987.43,302.022 1988.44,303.545 1989.19,305.28C1989.94,307.014 1990.32,308.865 1990.32,310.834C1990.32,312.803 1989.94,314.655 1989.19,316.389C1988.44,318.123 1987.43,319.623 1986.17,320.889C1984.9,322.155 1983.38,323.139 1981.6,323.842C1979.82,324.545 1977.94,324.897 1975.97,324.897C1974,324.897 1972.15,324.545 1970.42,323.842C1968.68,323.139 1967.18,322.155 1965.92,320.889C1964.65,319.623 1963.64,318.123 1962.89,316.389C1962.14,314.655 1961.77,312.803 1961.77,310.834Z" style="fill-rule:nonzero;"/>
                <path d="M2037.5,322.787C2037.5,332.162 2036.45,339.733 2034.34,345.498C2032.23,351.264 2029.23,355.74 2025.34,358.928C2021.45,362.115 2016.78,364.248 2011.35,365.326C2005.91,366.405 1999.86,366.944 1993.21,366.944C1984.21,366.944 1977.32,365.537 1972.53,362.725C1967.75,359.912 1965.36,356.537 1965.36,352.6C1965.36,349.319 1966.7,346.553 1969.37,344.303C1972.04,342.053 1975.63,340.928 1980.13,340.928C1983.5,340.928 1986.2,341.842 1988.21,343.67C1990.23,345.498 1991.89,347.303 1993.21,349.084C1994.71,351.053 1995.97,352.365 1997,353.022C1998.03,353.678 1998.97,354.006 1999.82,354.006C2001.6,354.006 2002.96,352.951 2003.89,350.842C2004.83,348.733 2005.3,344.631 2005.3,338.537L2005.3,222.944L2037.5,214.084L2037.5,322.787ZM2004.03,183.428C2004.03,181.272 2004.48,179.233 2005.37,177.311C2006.26,175.389 2007.48,173.725 2009.03,172.319C2010.57,170.912 2012.38,169.811 2014.44,169.014C2016.5,168.217 2018.75,167.819 2021.19,167.819C2023.53,167.819 2025.76,168.217 2027.87,169.014C2029.98,169.811 2031.83,170.912 2033.42,172.319C2035.02,173.725 2036.26,175.389 2037.15,177.311C2038.04,179.233 2038.49,181.272 2038.49,183.428C2038.49,185.584 2038.04,187.6 2037.15,189.475C2036.26,191.35 2035.02,192.99 2033.42,194.397C2031.83,195.803 2029.98,196.905 2027.87,197.701C2025.76,198.498 2023.53,198.897 2021.19,198.897C2018.75,198.897 2016.5,198.498 2014.44,197.701C2012.38,196.905 2010.57,195.803 2009.03,194.397C2007.48,192.99 2006.26,191.35 2005.37,189.475C2004.48,187.6 2004.03,185.584 2004.03,183.428Z" style="fill-rule:nonzero;"/>
                <path d="M2087.36,322.787L2055.44,322.787L2055.44,174.709L2087.36,165.85L2087.36,322.787Z" style="fill-rule:nonzero;"/>
            </g>
            <g transform="matrix(0.254457,-4.04627e-18,-4.04627e-18,0.270977,872.56,261.368)">
                <ellipse cx="228.445" cy="233.439" rx="78.98" ry="74.165" style="fill:rgb(100,133,227);stroke:rgb(61,103,219);stroke-width:20.39px;"/>
            </g>
        </g>
    </g>
</svg>
